<svg width="41" height="44" viewBox="0 0 41 44" xmlns="http://www.w3.org/2000/svg" fill="#E03C31">
    <path d="M26.4,9.9c0-0.1-0.1-0.1-0.2-0.1h-2.6c-0.1,0-0.3-0.1-0.3-0.2c-0.1-0.1,0-0.3,0.1-0.4l10.3-8.7 c0.1-0.1,0.1-0.2,0.1-0.3C33.6,0,33.5,0,33.4,0L16.7,5.6c-0.1,0-0.1,0.1-0.2,0.1L0,43.7c0,0.1,0,0.2,0,0.2C0.1,44,0.2,44,0.2,44h7.7 c0.1,0,0.2-0.1,0.2-0.2l2.8-6.6c0.1-0.1,0.2-0.2,0.3-0.3l13.3-4.4c0.1,0,0.1-0.1,0.2-0.1l1-3.4c0.1-0.2,0.2-0.3,0.4-0.3 c0,0,0.2,0,0.4,0.3l6.4,14.8c0,0.1,0.1,0.1,0.2,0.1h7.7c0.1,0,0.2,0,0.2-0.1c0-0.1,0-0.2,0-0.2L26.4,9.9z M24.5,25.4l-9.2,3.1 c-0.2,0.1-0.5-0.1-0.4-0.4l5.3-12.1c0.1-0.3,0.5-0.3,0.7,0l3.9,8.9C24.8,25.1,24.7,25.3,24.5,25.4z"></path>
</svg>
