<svg xmlns="http://www.w3.org/2000/svg" xml:space="preserve" id="Layer_1" x="0" y="0" style="enable-background:new 0 0 225 116.5" version="1.1" viewBox="0 0 225 116.5"> <style> .st2{fill:gray}.st3{fill:#fff} </style> <path id="lab_green" d="M144.3 110.3c-.2 0-.5-.1-.7-.2L103.1 90c-.5-.3-.9-.8-.9-1.4V28.1c0-.7.5-1.3 1.1-1.5l40.5-12.2c.1 0 .3-.1.5-.1s.3 0 .4.1l40.5 12.2c.7.2 1.2.8 1.2 1.5v47.4c0 .7-.5 1.3-1.1 1.5L147 88.4c-.7.2-1.1.8-1.1 1.5v18.7c0 .6-.3 1.1-.8 1.4-.2.2-.5.3-.8.3z" style="fill:#6cb144"/> <path id="robot_metal_gray" d="M51.3 101.2c-.1 0-.3 0-.5-.1L10.3 88.9c-.7-.2-1.1-.8-1.1-1.5V40c0-.7.5-1.3 1.2-1.5l38.2-11.4c.7-.2 1.1-.8 1.1-1.5V6.9c0-.6.3-1.1.8-1.4.3-.2.5-.2.9-.2.2 0 .5 0 .7.2l40.5 20.1c.6.3.9.8.9 1.4v60.4c0 .7-.5 1.3-1.1 1.5l-40.5 12.2c-.3 0-.5.1-.6.1z" style="fill:#7f7f7f"/> <g id="Labs"> <path d="M180.3 107.7h-2.7c-.1 0-.3-.1-.3-.2l-1.2-3c-.1-.1-.2-.2-.3-.2h-6c-.1 0-.3.1-.3.2l-1.2 3c-.1.1-.2.2-.3.2h-2.7c-.1 0-.2-.1-.3-.2s-.1-.2 0-.3l6.3-14.7c.1-.1.2-.2.3-.2h2.6c.1 0 .3.1.3.2l6.3 14.7v.3c-.3.1-.4.2-.5.2zm-7.6-10.8c-.1 0-.3.1-.3.2l-1.5 3.6v.3c.1.1.2.2.3.2h3c.1 0 .2-.1.3-.2s.1-.2 0-.3l-1.5-3.6c0-.1-.2-.2-.3-.2zM161.7 107.6h-10.3c-.2 0-.4-.2-.4-.4V92.7c0-.2.2-.4.4-.4h2.6c.2 0 .4.2.4.4v11.5c0 .2.2.4.4.4h6.9c.2 0 .4.2.4.4v2.3c0 .2-.2.3-.4.3zM190.9 107.6H184c-.2 0-.4-.2-.4-.4V92.7c0-.2.2-.4.4-.4h6.7c1.7 0 3.1.5 4 1.4.7.7 1.1 1.6 1.1 2.6 0 1.3-.5 2.3-1.5 3-.1.1-.2.2-.1.3 0 .1.1.2.2.3 1.6.8 2.3 1.8 2.3 3.5 0 2.7-2.1 4.2-5.8 4.2zm-3.6-6.3c-.2 0-.4.2-.4.4v2.6c0 .2.2.4.4.4h3.6c1.6 0 2.4-.6 2.4-1.7s-.8-1.7-2.5-1.7h-3.5zm0-6c-.2 0-.4.2-.4.4v2.5c0 .2.2.4.4.4h2.7c1.6 0 2.4-.5 2.4-1.6 0-.6-.3-1.6-2.2-1.6h-2.9v-.1zM205.8 107.9c-2.3 0-4.5-.8-6.2-2.2-.1-.1-.1-.1-.1-.2s0-.2.1-.3l1.5-1.8c.1-.1.2-.1.3-.1s.1 0 .2.1c1.4 1.1 2.8 1.6 4.3 1.6 1.4 0 2.2-.5 2.2-1.4s-.7-1.4-3.1-2c-2.9-.7-5.1-1.5-5.1-4.7 0-2.8 2.2-4.7 5.3-4.7 2 0 3.9.6 5.4 1.7.1.1.2.4.1.5l-1.3 2c-.1.1-.2.2-.3.2s-.1 0-.2-.1c-1.3-.9-2.5-1.3-3.7-1.3s-2 .5-2 1.3c0 1 .6 1.3 3.3 2.1 3 .8 4.9 1.8 4.9 4.6.1 2.8-2.1 4.7-5.6 4.7z" class="st2"/> </g> <g id="TM"> <path d="M214.3 104.7v3.2h-.4v-3.2h-1.1v-.4h2.7v.4h-1.2zM219.5 107.9h-.5v-3l-1.1 3h-.5l-1.1-3v3h-.3v-3.6h.7l1.1 3.1 1.1-3.1h.7v3.6h-.1z" class="st2"/> </g> <path id="Dont" d="M65.4 51.6h-2.6c-.2 0-.4.2-.4.4v8c0 .2-.1.3-.2.3h-.1c-.1 0-.2-.1-.3-.1l-6.4-8.4c-.1-.1-.2-.2-.3-.2h-2.6c-.2 0-.4.2-.4.4v14.6c0 .2.2.4.4.4h2.6c.2 0 .4-.2.4-.4v-8.3c0-.2.1-.3.2-.4h.1c.1 0 .2 0 .3.1l6.7 8.7c.1.1.2.1.3.1h2.3c.2 0 .4-.2.4-.4V52c0-.2-.2-.4-.4-.4zm5.9 0-1.5-.5h-.2l-1.5.5c-.1 0-.3.2-.3.3v1.9c0 .2.1.3.3.3l1.3.4c.1 0 .2.2.2.3v.6c0 .1.1.2.2.3h.4l1.1-.6c.1-.1.2-.2.2-.3v-3c.1-.1 0-.2-.2-.2zm-49.2 0h-5.6c-.2 0-.4.2-.4.4v14.6c0 .2.2.4.4.4h5.6c4.7 0 8.1-3.2 8.1-7.7s-3.4-7.7-8.1-7.7zm0 12.3h-2.2c-.2 0-.4-.2-.4-.4V55c0-.2.2-.4.4-.4h2.2c2.8 0 4.6 1.9 4.6 4.6 0 2.8-1.9 4.7-4.6 4.7zm19-12.6c-4.6 0-8.2 3.5-8.2 8s3.5 7.9 8.1 7.9 8.2-3.5 8.2-8-3.5-7.9-8.1-7.9zm0 12.8c-2.6 0-4.6-2.1-4.6-4.9 0-2.7 2-4.8 4.6-4.8s4.6 2.1 4.6 4.9c0 2.7-2 4.8-4.6 4.8zm45-12.5h-12c-.2 0-.4.2-.4.4v2.4c0 .2.2.4.4.4H78c.2 0 .4.2.4.4v11.5c0 .2.2.4.4.4h2.6c.2 0 .4-.2.4-.4V55.1c0-.2.2-.4.4-.4h3.9c.2 0 .4-.2.4-.4V52c0-.2-.2-.4-.4-.4z" class="st3"/> <path id="Panic" d="m161.4 64.4-1.3-.4h-.2l-1.3.4c-.1 0-.2.2-.2.3v1.6c0 .2.1.3.2.3l1.3.4h.2l1.3-.4c.1 0 .2-.2.2-.3v-1.6c.1-.1 0-.3-.2-.3zm-44.9-12.8h-5.9c-.2 0-.4.2-.4.4v14.6c0 .2.2.4.4.4h2.6c.2 0 .4-.2.4-.4v-3.9c0-.2.2-.4.4-.4h2.2c3.8 0 6.3-2.1 6.2-5.4-.1-3.2-2.4-5.3-5.9-5.3zm-.2 7.7H114c-.2 0-.4-.2-.4-.4V55c0-.2.2-.4.4-.4h2.2c1.7 0 2.7.9 2.7 2.4 0 1.3-1 2.3-2.6 2.3zm15.9-7.6c-.1-.1-.2-.2-.3-.2h-2.6c-.2 0-.3.1-.3.2l-6.3 14.7v.3c.1.1.2.2.3.2h2.6c.1 0 .3-.1.3-.2l1.2-3c.1-.1.2-.2.3-.2h6c.1 0 .3.1.3.2l1.2 3c.1.1.2.2.3.2h2.7c.1 0 .2-.1.3-.2s.1-.2 0-.3l-6-14.7zm.1 8.6c-.1.1-.2.2-.3.2h-3c-.1 0-.2-.1-.3-.2-.1-.1-.1-.2 0-.3l1.5-3.6c.1-.1.2-.2.3-.2s.3.1.3.2l1.5 3.6c.1.1.1.2 0 .3zm22.4-8.7h-2.6c-.2 0-.4.2-.4.4v8c0 .2-.1.3-.3.3h-.1c-.1 0-.2-.1-.3-.1l-6.4-8.4c-.1-.1-.2-.1-.3-.1h-2.6c-.2 0-.4.2-.4.4v14.6c0 .2.2.4.4.4h2.6c.2 0 .4-.2.4-.4v-8.3c0-.2.1-.3.2-.3h.1c.1 0 .2 0 .3.1l6.7 8.7c.1.1.2.1.3.1h2.3c.2 0 .4-.2.4-.4V51.9c.1-.2-.1-.3-.3-.3zm23.9 12.5-1.7-1.7c-.1-.1-.2-.1-.3-.1s-.2 0-.2.1c-1.1.9-2.1 1.6-3.8 1.6-2.6 0-4.4-2-4.4-4.9 0-2.7 1.9-4.8 4.4-4.8 1.3 0 2.4.5 3.7 1.5.1.1.1.1.2.1s.2-.1.3-.1l1.7-1.9c.1-.1.1-.4 0-.5-1.6-1.5-3.4-2.1-5.8-2.1-4.6 0-8 3.4-8 8 0 4.5 3.4 7.9 7.9 7.9 2.5 0 4.3-.7 6-2.5.1-.2.1-.4 0-.6zm-17.3-12.5h-2.6c-.2 0-.4.2-.4.4v10.4c0 .2.1.3.2.3l1.3.4h.2l1.3-.4c.1 0 .2-.2.2-.3V51.9c.2-.2 0-.3-.2-.3z" class="st3"/> </svg>
