<svg xmlns="http://www.w3.org/2000/svg" viewBox="0 0 100 100" role="img" aria-label="Kodestarters">
  <path fill="#E57D26" fill-rule="evenodd" d="M 24.000,98.500 C 24.000,98.083 23.833,98.000 23.000,98.000 L 22.000,98.000 L 22.000,50.000 C 22.000,2.167 22.002,2.000 22.500,2.000 C 22.833,2.000 23.000,1.833 23.000,1.500 C 23.000,1.083 23.167,1.000 24.000,1.000 C 24.833,1.000 25.000,1.083 25.000,1.500 C 25.000,1.958 25.167,2.000 27.000,2.000 C 28.833,2.000 29.000,2.042 29.000,2.500 C 29.000,2.833 29.167,3.000 29.500,3.000 C 29.833,3.000 30.000,3.167 30.000,3.500 C 30.000,3.917 30.167,4.000 31.000,4.000 C 31.833,4.000 32.000,4.083 32.000,4.500 C 32.000,4.833 32.167,5.000 32.500,5.000 C 32.833,5.000 33.000,5.167 33.000,5.500 C 33.000,5.833 33.167,6.000 33.500,6.000 C 33.917,6.000 34.000,6.167 34.000,7.000 C 34.000,7.833 34.083,8.000 34.500,8.000 C 34.833,8.000 35.000,8.167 35.000,8.500 C 35.000,8.833 35.167,9.000 35.500,9.000 C 35.944,9.000 36.000,9.167 36.000,10.500 C 36.000,11.833 36.056,12.000 36.500,12.000 C 36.998,12.000 37.000,12.167 37.000,50.000 C 37.000,87.833 36.998,88.000 36.500,88.000 C 36.056,88.000 36.000,88.167 36.000,89.500 C 36.000,90.833 35.944,91.000 35.500,91.000 C 35.083,91.000 35.000,91.167 35.000,92.000 C 35.000,92.833 34.917,93.000 34.500,93.000 C 34.167,93.000 34.000,93.167 34.000,93.500 C 34.000,93.833 33.833,94.000 33.500,94.000 C 33.167,94.000 33.000,94.167 33.000,94.500 C 33.000,94.833 32.833,95.000 32.500,95.000 C 32.167,95.000 32.000,95.167 32.000,95.500 C 32.000,95.833 31.833,96.000 31.500,96.000 C 31.167,96.000 31.000,96.167 31.000,96.500 C 31.000,96.917 30.833,97.000 30.000,97.000 C 29.167,97.000 29.000,97.083 29.000,97.500 C 29.000,97.944 28.833,98.000 27.500,98.000 C 26.167,98.000 26.000,98.056 26.000,98.500 C 26.000,98.917 25.833,99.000 25.000,99.000 C 24.167,99.000 24.000,98.917 24.000,98.500 Z M 62.000,98.500 C 62.000,98.042 61.833,98.000 60.000,98.000 C 58.167,98.000 58.000,97.958 58.000,97.500 C 58.000,97.083 57.833,97.000 57.000,97.000 C 56.167,97.000 56.000,96.917 56.000,96.500 C 56.000,96.167 55.833,96.000 55.500,96.000 C 55.167,96.000 55.000,95.833 55.000,95.500 C 55.000,95.167 54.833,95.000 54.500,95.000 C 54.167,95.000 54.000,94.833 54.000,94.500 C 54.000,94.167 53.833,94.000 53.500,94.000 C 53.167,94.000 53.000,93.833 53.000,93.500 C 53.000,93.167 52.833,93.000 52.500,93.000 C 52.083,93.000 52.000,92.833 52.000,92.000 C 52.000,91.167 51.917,91.000 51.500,91.000 C 51.083,91.000 51.000,90.833 51.000,90.000 C 51.000,89.167 50.917,89.000 50.500,89.000 C 50.005,89.000 50.000,88.833 50.000,71.500 C 50.000,54.167 49.995,54.000 49.500,54.000 C 49.056,54.000 49.000,53.833 49.000,52.500 C 49.000,51.167 48.944,51.000 48.500,51.000 C 48.083,51.000 48.000,50.833 48.000,50.000 C 48.000,49.167 47.917,49.000 47.500,49.000 C 47.167,49.000 47.000,48.833 47.000,48.500 C 47.000,48.167 46.833,48.000 46.500,48.000 C 46.167,48.000 46.000,47.833 46.000,47.500 C 46.000,47.167 45.833,47.000 45.500,47.000 C 45.167,47.000 45.000,46.833 45.000,46.500 C 45.000,46.083 44.833,46.000 44.000,46.000 C 43.167,46.000 43.000,45.917 43.000,45.500 C 43.000,45.167 42.833,45.000 42.500,45.000 C 42.167,45.000 42.000,44.833 42.000,44.500 C 42.000,44.083 41.833,44.000 41.000,44.000 C 40.000,44.000 40.000,44.000 40.000,43.000 C 40.000,42.000 40.000,42.000 41.000,42.000 C 41.833,42.000 42.000,41.917 42.000,41.500 C 42.000,41.083 42.167,41.000 43.000,41.000 C 43.833,41.000 44.000,40.917 44.000,40.500 C 44.000,40.167 44.167,40.000 44.500,40.000 C 44.833,40.000 45.000,39.833 45.000,39.500 C 45.000,39.167 45.167,39.000 45.500,39.000 C 45.833,39.000 46.000,38.833 46.000,38.500 C 46.000,38.167 46.167,38.000 46.500,38.000 C 46.833,38.000 47.000,37.833 47.000,37.500 C 47.000,37.167 47.167,37.000 47.500,37.000 C 47.917,37.000 48.000,36.833 48.000,36.000 C 48.000,35.167 48.083,35.000 48.500,35.000 C 48.917,35.000 49.000,34.833 49.000,34.000 C 49.000,33.167 49.083,33.000 49.500,33.000 C 49.992,33.000 50.000,32.833 50.000,22.000 C 50.000,11.167 50.008,11.000 50.500,11.000 C 50.917,11.000 51.000,10.833 51.000,10.000 C 51.000,9.167 51.083,9.000 51.500,9.000 C 51.917,9.000 52.000,8.833 52.000,8.000 C 52.000,7.167 52.083,7.000 52.500,7.000 C 52.833,7.000 53.000,6.833 53.000,6.500 C 53.000,6.167 53.167,6.000 53.500,6.000 C 53.833,6.000 54.000,5.833 54.000,5.500 C 54.000,5.167 54.167,5.000 54.500,5.000 C 54.833,5.000 55.000,4.833 55.000,4.500 C 55.000,4.167 55.167,4.000 55.500,4.000 C 55.833,4.000 56.000,3.833 56.000,3.500 C 56.000,3.083 56.167,3.000 57.000,3.000 C 57.833,3.000 58.000,2.917 58.000,2.500 C 58.000,2.042 58.167,2.000 60.000,2.000 C 61.833,2.000 62.000,1.958 62.000,1.500 C 62.000,1.015 62.167,1.000 67.500,1.000 L 73.000,1.000 L 73.000,2.000 C 73.000,2.833 72.917,3.000 72.500,3.000 C 72.167,3.000 72.000,3.167 72.000,3.500 C 72.000,3.917 71.833,4.000 71.000,4.000 C 70.167,4.000 70.000,4.083 70.000,4.500 C 70.000,4.833 69.833,5.000 69.500,5.000 C 69.167,5.000 69.000,5.167 69.000,5.500 C 69.000,5.833 68.833,6.000 68.500,6.000 C 68.167,6.000 68.000,6.167 68.000,6.500 C 68.000,6.833 67.833,7.000 67.500,7.000 C 67.083,7.000 67.000,7.167 67.000,8.000 C 67.000,8.833 66.917,9.000 66.500,9.000 C 66.167,9.000 66.000,9.167 66.000,9.500 C 66.000,9.833 65.833,10.000 65.500,10.000 C 65.028,10.000 65.000,10.167 65.000,13.000 C 65.000,15.833 64.972,16.000 64.500,16.000 C 64.009,16.000 64.000,16.167 64.000,25.500 C 64.000,34.833 63.991,35.000 63.500,35.000 C 63.083,35.000 63.000,35.167 63.000,36.000 C 63.000,36.833 62.917,37.000 62.500,37.000 C 62.167,37.000 62.000,37.167 62.000,37.500 C 62.000,37.833 61.833,38.000 61.500,38.000 C 61.167,38.000 61.000,38.167 61.000,38.500 C 61.000,38.833 60.833,39.000 60.500,39.000 C 60.167,39.000 60.000,39.167 60.000,39.500 C 60.000,39.833 59.833,40.000 59.500,40.000 C 59.167,40.000 59.000,40.167 59.000,40.500 C 59.000,40.833 58.833,41.000 58.500,41.000 C 58.167,41.000 58.000,41.167 58.000,41.500 C 58.000,41.917 57.833,42.000 57.000,42.000 C 56.167,42.000 56.000,42.083 56.000,42.500 C 56.000,42.833 55.833,43.000 55.500,43.000 C 55.167,43.000 55.000,43.167 55.000,43.500 C 55.000,43.917 55.167,44.000 56.000,44.000 C 56.833,44.000 57.000,44.083 57.000,44.500 C 57.000,44.917 57.167,45.000 58.000,45.000 C 58.833,45.000 59.000,45.083 59.000,45.500 C 59.000,45.833 59.167,46.000 59.500,46.000 C 59.833,46.000 60.000,46.167 60.000,46.500 C 60.000,46.833 60.167,47.000 60.500,47.000 C 60.833,47.000 61.000,47.167 61.000,47.500 C 61.000,47.833 61.167,48.000 61.500,48.000 C 61.917,48.000 62.000,48.167 62.000,49.000 C 62.000,49.833 62.083,50.000 62.500,50.000 C 62.917,50.000 63.000,50.167 63.000,51.000 C 63.000,51.833 63.083,52.000 63.500,52.000 C 63.994,52.000 64.000,52.167 64.000,65.500 C 64.000,78.833 64.006,79.000 64.500,79.000 C 64.967,79.000 65.000,79.167 65.000,81.500 C 65.000,83.833 64.967,84.000 64.500,84.000 C 64.167,84.000 64.000,84.167 64.000,84.500 C 64.000,84.833 64.167,85.000 64.500,85.000 C 64.958,85.000 65.000,85.167 65.000,87.000 C 65.000,88.833 65.042,89.000 65.500,89.000 C 65.944,89.000 66.000,89.167 66.000,90.500 C 66.000,91.833 66.056,92.000 66.500,92.000 C 66.833,92.000 67.000,92.167 67.000,92.500 C 67.000,92.833 67.167,93.000 67.500,93.000 C 67.833,93.000 68.000,93.167 68.000,93.500 C 68.000,93.833 68.167,94.000 68.500,94.000 C 68.833,94.000 69.000,94.167 69.000,94.500 C 69.000,94.833 69.167,95.000 69.500,95.000 C 69.833,95.000 70.000,95.167 70.000,95.500 C 70.000,95.917 70.167,96.000 71.000,96.000 C 71.833,96.000 72.000,96.083 72.000,96.500 C 72.000,96.917 72.167,97.000 73.000,97.000 C 73.833,97.000 74.000,97.083 74.000,97.500 C 74.000,97.917 73.833,98.000 73.000,98.000 C 72.167,98.000 72.000,98.083 72.000,98.500 C 72.000,98.983 71.833,99.000 67.000,99.000 C 62.167,99.000 62.000,98.983 62.000,98.500 Z"/>
</svg>
